<?xml version="1.0" encoding="UTF-8" standalone="no"?><svg xmlns="http://www.w3.org/2000/svg" xmlns:xlink="http://www.w3.org/1999/xlink" contentStyleType="text/css" height="376px" preserveAspectRatio="none" style="width:537px;height:376px;background:#FFFFFF;" version="1.1" viewBox="0 0 537 376" width="537px" zoomAndPan="magnify"><defs/><g><!--MD5=[0278646e5a3f51edb25d463fe8c5bfab]
class MainController--><g id="elem_MainController"><rect codeLine="2" fill="#F1F1F1" height="64.4883" id="MainController" rx="2.5" ry="2.5" style="stroke:#181818;stroke-width:0.5;" width="135" x="145.5" y="23.5"/><ellipse cx="160.5" cy="39.5" fill="#B4A7E5" rx="11" ry="11" style="stroke:#181818;stroke-width:1.0;"/><path d="M156.9277,35.7651 L156.9277,33.6069 L164.3071,33.6069 L164.3071,35.7651 L161.8418,35.7651 L161.8418,43.8418 L164.3071,43.8418 L164.3071,46 L156.9277,46 L156.9277,43.8418 L159.3931,43.8418 L159.3931,35.7651 Z " fill="#000000"/><text fill="#000000" font-family="sans-serif" font-size="14" font-style="italic" lengthAdjust="spacing" textLength="103" x="174.5" y="44.791">MainController</text><line style="stroke:#181818;stroke-width:0.5;" x1="146.5" x2="279.5" y1="55.5" y2="55.5"/><line style="stroke:#181818;stroke-width:0.5;" x1="146.5" x2="279.5" y1="63.5" y2="63.5"/><ellipse cx="156.5" cy="74.5" fill="#84BE84" rx="3" ry="3" style="stroke:#038048;stroke-width:1.0;"/><text fill="#000000" font-family="sans-serif" font-size="14" lengthAdjust="spacing" textLength="34" x="165.5" y="81.0352">run()</text></g><!--MD5=[bc1783bf51868ef43d4eb0021387e1d4]
class GardenController--><g id="elem_GardenController"><rect codeLine="6" fill="#F1F1F1" height="48" id="GardenController" rx="2.5" ry="2.5" style="stroke:#181818;stroke-width:0.5;" width="152" x="142" y="180.5"/><ellipse cx="157" cy="196.5" fill="#ADD1B2" rx="11" ry="11" style="stroke:#181818;stroke-width:1.0;"/><path d="M159.4731,202.6431 Q158.8921,202.9419 158.2529,203.0913 Q157.6138,203.2407 156.9082,203.2407 Q154.4014,203.2407 153.0815,201.5889 Q151.7617,199.937 151.7617,196.8159 Q151.7617,193.6865 153.0815,192.0347 Q154.4014,190.3828 156.9082,190.3828 Q157.6138,190.3828 158.2612,190.5322 Q158.9087,190.6816 159.4731,190.9805 L159.4731,193.7031 Q158.8423,193.1221 158.2488,192.8523 Q157.6553,192.5825 157.0244,192.5825 Q155.6797,192.5825 154.9949,193.6492 Q154.3101,194.7158 154.3101,196.8159 Q154.3101,198.9077 154.9949,199.9744 Q155.6797,201.041 157.0244,201.041 Q157.6553,201.041 158.2488,200.7712 Q158.8423,200.5015 159.4731,199.9204 Z " fill="#000000"/><text fill="#000000" font-family="sans-serif" font-size="14" lengthAdjust="spacing" textLength="120" x="171" y="201.791">GardenController</text><line style="stroke:#181818;stroke-width:0.5;" x1="143" x2="293" y1="212.5" y2="212.5"/><line style="stroke:#181818;stroke-width:0.5;" x1="143" x2="293" y1="220.5" y2="220.5"/></g><!--MD5=[23a52dd0a86c3d9bd55eec66e708497f]
class CommAgent--><g id="elem_CommAgent"><rect codeLine="8" fill="#F1F1F1" height="97.4648" id="CommAgent" rx="2.5" ry="2.5" style="stroke:#181818;stroke-width:0.5;" width="215" x="315.5" y="7"/><ellipse cx="375.75" cy="23" fill="#B4A7E5" rx="11" ry="11" style="stroke:#181818;stroke-width:1.0;"/><path d="M372.1777,19.2651 L372.1777,17.1069 L379.5571,17.1069 L379.5571,19.2651 L377.0918,19.2651 L377.0918,27.3418 L379.5571,27.3418 L379.5571,29.5 L372.1777,29.5 L372.1777,27.3418 L374.6431,27.3418 L374.6431,19.2651 Z " fill="#000000"/><text fill="#000000" font-family="sans-serif" font-size="14" font-style="italic" lengthAdjust="spacing" textLength="86" x="396.25" y="28.291">CommAgent</text><line style="stroke:#181818;stroke-width:0.5;" x1="316.5" x2="529.5" y1="39" y2="39"/><line style="stroke:#181818;stroke-width:0.5;" x1="316.5" x2="529.5" y1="47" y2="47"/><ellipse cx="326.5" cy="58" fill="#84BE84" rx="3" ry="3" style="stroke:#038048;stroke-width:1.0;"/><text fill="#000000" font-family="sans-serif" font-size="14" lengthAdjust="spacing" textLength="173" x="335.5" y="64.5352">establishCommChannel()</text><ellipse cx="326.5" cy="74.4883" fill="#84BE84" rx="3" ry="3" style="stroke:#038048;stroke-width:1.0;"/><text fill="#000000" font-family="sans-serif" font-size="14" lengthAdjust="spacing" textLength="189" x="335.5" y="81.0234">sendData(msg: const char*)</text><ellipse cx="326.5" cy="90.9766" fill="#84BE84" rx="3" ry="3" style="stroke:#038048;stroke-width:1.0;"/><text fill="#000000" font-family="sans-serif" font-size="14" lengthAdjust="spacing" textLength="175" x="335.5" y="97.5117">receiveData(): const char*</text></g><!--MD5=[69570f20abc16884e5c8c0ffa134831b]
class MQTTCommAgent--><g id="elem_MQTTCommAgent"><rect codeLine="14" fill="#F1F1F1" height="48" id="MQTTCommAgent" rx="2.5" ry="2.5" style="stroke:#181818;stroke-width:0.5;" width="159" x="338.5" y="180.5"/><ellipse cx="353.5" cy="196.5" fill="#ADD1B2" rx="11" ry="11" style="stroke:#181818;stroke-width:1.0;"/><path d="M355.9731,202.6431 Q355.3921,202.9419 354.7529,203.0913 Q354.1138,203.2407 353.4082,203.2407 Q350.9014,203.2407 349.5815,201.5889 Q348.2617,199.937 348.2617,196.8159 Q348.2617,193.6865 349.5815,192.0347 Q350.9014,190.3828 353.4082,190.3828 Q354.1138,190.3828 354.7612,190.5322 Q355.4087,190.6816 355.9731,190.9805 L355.9731,193.7031 Q355.3423,193.1221 354.7488,192.8523 Q354.1553,192.5825 353.5244,192.5825 Q352.1797,192.5825 351.4949,193.6492 Q350.8101,194.7158 350.8101,196.8159 Q350.8101,198.9077 351.4949,199.9744 Q352.1797,201.041 353.5244,201.041 Q354.1553,201.041 354.7488,200.7712 Q355.3423,200.5015 355.9731,199.9204 Z " fill="#000000"/><text fill="#000000" font-family="sans-serif" font-size="14" lengthAdjust="spacing" textLength="127" x="367.5" y="201.791">MQTTCommAgent</text><line style="stroke:#181818;stroke-width:0.5;" x1="339.5" x2="496.5" y1="212.5" y2="212.5"/><line style="stroke:#181818;stroke-width:0.5;" x1="339.5" x2="496.5" y1="220.5" y2="220.5"/></g><!--MD5=[7c1a0278dec21c72584b17e1785fd623]
class Light--><g id="elem_Light"><rect codeLine="18" fill="#F1F1F1" height="80.9766" id="Light" rx="2.5" ry="2.5" style="stroke:#181818;stroke-width:0.5;" width="100" x="7" y="164"/><ellipse cx="37.3" cy="180" fill="#B4A7E5" rx="11" ry="11" style="stroke:#181818;stroke-width:1.0;"/><path d="M33.7277,176.2651 L33.7277,174.1069 L41.1071,174.1069 L41.1071,176.2651 L38.6418,176.2651 L38.6418,184.3418 L41.1071,184.3418 L41.1071,186.5 L33.7277,186.5 L33.7277,184.3418 L36.1931,184.3418 L36.1931,176.2651 Z " fill="#000000"/><text fill="#000000" font-family="sans-serif" font-size="14" font-style="italic" lengthAdjust="spacing" textLength="34" x="54.7" y="185.291">Light</text><line style="stroke:#181818;stroke-width:0.5;" x1="8" x2="106" y1="196" y2="196"/><line style="stroke:#181818;stroke-width:0.5;" x1="8" x2="106" y1="204" y2="204"/><ellipse cx="18" cy="215" fill="#84BE84" rx="3" ry="3" style="stroke:#038048;stroke-width:1.0;"/><text fill="#000000" font-family="sans-serif" font-size="14" lengthAdjust="spacing" textLength="73" x="27" y="221.5352">switchOn()</text><ellipse cx="18" cy="231.4883" fill="#84BE84" rx="3" ry="3" style="stroke:#038048;stroke-width:1.0;"/><text fill="#000000" font-family="sans-serif" font-size="14" lengthAdjust="spacing" textLength="74" x="27" y="238.0234">switchOff()</text></g><!--MD5=[55aa8b90905f9187c6c6394339c76c2e]
class LightSensor--><g id="elem_LightSensor"><rect codeLine="23" fill="#F1F1F1" height="64.4883" id="LightSensor" rx="2.5" ry="2.5" style="stroke:#181818;stroke-width:0.5;" width="131" x="59.5" y="305"/><ellipse cx="82.6" cy="321" fill="#B4A7E5" rx="11" ry="11" style="stroke:#181818;stroke-width:1.0;"/><path d="M79.0277,317.2651 L79.0277,315.1069 L86.4071,315.1069 L86.4071,317.2651 L83.9418,317.2651 L83.9418,325.3418 L86.4071,325.3418 L86.4071,327.5 L79.0277,327.5 L79.0277,325.3418 L81.4931,325.3418 L81.4931,317.2651 Z " fill="#000000"/><text fill="#000000" font-family="sans-serif" font-size="14" font-style="italic" lengthAdjust="spacing" textLength="81" x="98.4" y="326.291">LightSensor</text><line style="stroke:#181818;stroke-width:0.5;" x1="60.5" x2="189.5" y1="337" y2="337"/><line style="stroke:#181818;stroke-width:0.5;" x1="60.5" x2="189.5" y1="345" y2="345"/><ellipse cx="70.5" cy="356" fill="#84BE84" rx="3" ry="3" style="stroke:#038048;stroke-width:1.0;"/><text fill="#000000" font-family="sans-serif" font-size="14" lengthAdjust="spacing" textLength="105" x="79.5" y="362.5352">readValue(): int</text></g><!--MD5=[4f2da9535fb2e2387aec7bf4b4aa6b4a]
class TemperatureSensor--><g id="elem_TemperatureSensor"><rect codeLine="27" fill="#F1F1F1" height="64.4883" id="TemperatureSensor" rx="2.5" ry="2.5" style="stroke:#181818;stroke-width:0.5;" width="168" x="226" y="305"/><ellipse cx="241" cy="321" fill="#B4A7E5" rx="11" ry="11" style="stroke:#181818;stroke-width:1.0;"/><path d="M237.4277,317.2651 L237.4277,315.1069 L244.8071,315.1069 L244.8071,317.2651 L242.3418,317.2651 L242.3418,325.3418 L244.8071,325.3418 L244.8071,327.5 L237.4277,327.5 L237.4277,325.3418 L239.8931,325.3418 L239.8931,317.2651 Z " fill="#000000"/><text fill="#000000" font-family="sans-serif" font-size="14" font-style="italic" lengthAdjust="spacing" textLength="136" x="255" y="326.291">TemperatureSensor</text><line style="stroke:#181818;stroke-width:0.5;" x1="227" x2="393" y1="337" y2="337"/><line style="stroke:#181818;stroke-width:0.5;" x1="227" x2="393" y1="345" y2="345"/><ellipse cx="237" cy="356" fill="#84BE84" rx="3" ry="3" style="stroke:#038048;stroke-width:1.0;"/><text fill="#000000" font-family="sans-serif" font-size="14" lengthAdjust="spacing" textLength="105" x="246" y="362.5352">readValue(): int</text></g><!--MD5=[4f8440e64a66e4fbfd11c9ef9157b43c]
reverse link MainController to GardenController--><g id="link_MainController_GardenController"><path d="M214.75,108.02 C215.59,132.58 216.55,160.74 217.2,180.09 " fill="none" id="MainController-backto-GardenController" style="stroke:#181818;stroke-width:1.0;stroke-dasharray:7.0,7.0;"/><polygon fill="none" points="207.74,107.9,214.06,87.67,221.74,107.43,207.74,107.9" style="stroke:#181818;stroke-width:1.0;"/></g><!--MD5=[68f34c3438c5994f5214e19e4883753a]
reverse link CommAgent to MQTTCommAgent--><g id="link_CommAgent_MQTTCommAgent"><path d="M420.69,124.32 C420.01,144.42 419.31,165.1 418.79,180.28 " fill="none" id="CommAgent-backto-MQTTCommAgent" style="stroke:#181818;stroke-width:1.0;stroke-dasharray:7.0,7.0;"/><polygon fill="none" points="413.7,123.98,421.38,104.23,427.69,124.45,413.7,123.98" style="stroke:#181818;stroke-width:1.0;"/></g><!--MD5=[bd062e7b5be4f2313a8e634ddcc6358a]
reverse link GardenController to MQTTCommAgent--><g id="link_GardenController_MQTTCommAgent"><path codeLine="16" d="M307.24,204.5 C317.56,204.5 327.87,204.5 338.19,204.5 " fill="none" id="GardenController-backto-MQTTCommAgent" style="stroke:#181818;stroke-width:1.0;"/><polygon fill="#181818" points="294.17,204.5,300.17,208.5,306.17,204.5,300.17,200.5,294.17,204.5" style="stroke:#181818;stroke-width:1.0;"/></g><!--MD5=[44b78b3ee618f3df5daa01f32f3cfb86]
link Light to GardenController--><g id="link_Light_GardenController"><path codeLine="31" d="M107.31,204.5 C114.43,204.5 121.54,204.5 128.66,204.5 " fill="none" id="Light-to-GardenController" style="stroke:#181818;stroke-width:1.0;"/><polygon fill="#181818" points="141.9,204.5,135.9,200.5,129.9,204.5,135.9,208.5,141.9,204.5" style="stroke:#181818;stroke-width:1.0;"/></g><!--MD5=[38df268e8f9efdfa90f0d05cb43cb28b]
reverse link GardenController to LightSensor--><g id="link_GardenController_LightSensor"><path codeLine="32" d="M194,239.17 C179.56,259.44 161.29,285.08 147.18,304.88 " fill="none" id="GardenController-backto-LightSensor" style="stroke:#181818;stroke-width:1.0;"/><polygon fill="#181818" points="201.59,228.53,194.8506,231.0952,194.6264,238.3028,201.3658,235.7376,201.59,228.53" style="stroke:#181818;stroke-width:1.0;"/></g><!--MD5=[252b951f69258fc2204809d9198eb2d2]
reverse link GardenController to TemperatureSensor--><g id="link_GardenController_TemperatureSensor"><path codeLine="33" d="M241.74,239.17 C256.03,259.44 274.1,285.08 288.06,304.88 " fill="none" id="GardenController-backto-TemperatureSensor" style="stroke:#181818;stroke-width:1.0;"/><polygon fill="#181818" points="234.24,228.53,234.4311,235.7386,241.1586,238.3347,240.9676,231.1261,234.24,228.53" style="stroke:#181818;stroke-width:1.0;"/></g><!--MD5=[28562d5dfb8285dc188be4b3f6f2ce91]
@startuml sensorboard-class-diagram

interface MainController {
    + run()
}

class GardenController implements MainController

interface CommAgent {
    + establishCommChannel()
    + sendData(msg: const char*)
    + receiveData(): const char*
}

class MQTTCommAgent implements CommAgent

GardenController *-right- MQTTCommAgent

interface Light {
    + switchOn()
    + switchOff()
}

interface LightSensor {
    + readValue(): int
}

interface TemperatureSensor {
    + readValue(): int 
}

Light -right-* GardenController
LightSensor -up-* GardenController
TemperatureSensor -up-* GardenController

@enduml

PlantUML version 1.2022.5(Sat Apr 30 12:55:52 CEST 2022)
(GPL source distribution)
Java Runtime: OpenJDK Runtime Environment
JVM: OpenJDK 64-Bit Server VM
Default Encoding: UTF-8
Language: en
Country: IT
--></g></svg>